<svg id="Warstwa_1" data-name="Warstwa 1" xmlns="http://www.w3.org/2000/svg" width="500" height="500" viewBox="0 0 500 500"><title>Agata i Marcin</title><path d="M376,279.61a125.47,125.47,0,0,1-27.83,79c-.54.67-1.09,1.34-1.64,2a126,126,0,0,1-192.53.62c-.74-.87-1.46-1.74-2.17-2.62a126,126,0,1,1,224.17-79Z" style="fill:#00796b"/><path d="M323.62,183.63V246.1h-.06c-1,23.35-18.85,43.23-44.06,51.87-.82.28-1.65.56-2.48.8a86.85,86.85,0,0,1-25.78,3.84,87.8,87.8,0,0,1-23.3-3.1c-.83-.23-1.66-.47-2.48-.72-26.51-8.17-45.54-28.57-46.54-52.69h-.06V183.63c0-32.3,32.4-58.5,72.38-58.5S323.62,151.33,323.62,183.63Z" style="fill:#f2d7b3"/><path d="M337.86,220c-2,7.32-8.3,12-14.25,10.85v-27a10,10,0,0,1,6.93-.66C336.69,204.89,340,212.43,337.86,220Z" style="fill:#e5c8a5"/><path d="M178.87,204.2v26.51h0c-6.14,1.7-12.82-3.09-14.92-10.69s1.18-15.13,7.33-16.82A10.13,10.13,0,0,1,178.87,204.2Z" style="fill:#e5c8a5"/><circle cx="214" cy="212.61" r="9.9"/><circle cx="287" cy="212.61" r="9.9"/><path d="M250.5,241.61a11,11,0,0,1-10.37-8.05,1.5,1.5,0,1,1,2.86-.89,7.71,7.71,0,0,0,15,0,1.5,1.5,0,1,1,2.86.89A11,11,0,0,1,250.5,241.61Z" style="fill:#b59476"/><path d="M200.79,196.71a1,1,0,0,1-.86-1.51c1.7-2.85,6.54-5,12.32-5.56s10.93.73,13.13,3.22a1,1,0,0,1-1.5,1.32c-1.73-2-6.44-3-11.44-2.55s-9.44,2.35-10.79,4.6A1,1,0,0,1,200.79,196.71Z"/><path d="M300.63,196.71a1,1,0,0,1-.86-.49c-1.34-2.25-5.78-4.14-10.79-4.6s-9.71.59-11.44,2.55a1,1,0,1,1-1.5-1.32c2.2-2.49,7.35-3.75,13.13-3.22s10.61,2.72,12.32,5.56a1,1,0,0,1-.86,1.51Z"/><path d="M279,118.2a20.64,20.64,0,0,1-2.87,10.44,92,92,0,0,0-23.7-3.47h-2.6A86.66,86.66,0,0,0,225.35,129a20.66,20.66,0,0,1-3.1-10.84c0-13.15,12.7-23.8,28.38-23.8S279,105.05,279,118.2Z"/><path d="M323.63,199c-6.39-.32-57.42-34.7-72.48-45.87-13.81,18.44-70.53,45.2-72.47,45.87-1.19,2.52-4-17.32-.87-25.7,7.37-20,24.6-36.85,47.56-44.23a84.47,84.47,0,0,1,24.49-4h2.6a89.67,89.67,0,0,1,23.7,3.57c22.1,6.48,39.51,21.26,46.74,39.86C326.59,178.13,326.59,191.38,323.63,199Z"/><path d="M271,260.16c0,6.88-9,12.45-20,12.45s-20-5.57-20-12.45a59.7,59.7,0,0,0,40,0Z" style="fill:#c15c3d"/><path d="M273,258.87c-.6-3.83-6.06-6.17-12.2-5.21-5.18.81-9.18,3.71-9.94,6.9-.76-3.19-4.75-6.09-9.94-6.9-6.14-1-11.6,1.38-12.2,5.21v0a33.59,33.59,0,0,0,22.14,3.49A33.59,33.59,0,0,0,273,258.9Z" style="fill:#c15c3d"/><path d="M251,264.11c-12.69,0-24-2.94-28.22-7.31a1,1,0,1,1,1.44-1.38c3.84,4,14.6,6.69,26.78,6.69s22.94-2.69,26.78-6.69a1,1,0,1,1,1.44,1.38C275,261.17,263.69,264.11,251,264.11Z" style="fill:#774228"/><path d="M250,405.61a125.66,125.66,0,0,0,91.46-39.33c-1.75-6-3.82-10.82-6.09-13.69C322,338.67,257.78,333.84,251,336c-6.78-2.17-71,2.66-84.37,16.58-2.47,3.12-4.7,8.58-6.55,15.28A125.62,125.62,0,0,0,250,405.61Z" style="fill:#9e7754"/><path d="M264.87,404.74A127,127,0,0,1,213,400.09a275.36,275.36,0,0,1-16.5-59c7.5-12.5,17.66-15.17,28.5-18.5l.5,14.25,25.74,43.81.26.44C255.59,388.72,260.31,397.08,264.87,404.74Z" style="fill:#c69b75"/><path d="M304.8,393.11a125.37,125.37,0,0,1-39.93,11.63c-4.56-7.66-9.28-16-13.37-23.63l-.26-.44L277,336.86l.5-14.25c10.85,3.33,21,6,28.5,18.5C307.28,355.63,306.51,375.2,304.8,393.11Z" style="fill:#b78d67"/><path d="M277,298.74v37.87a144,144,0,0,1-25.67,45c-9.13-12-17.83-27.66-26.33-45V298.75c.83.26,1.66.5,2.5.73a88.56,88.56,0,0,0,23.5,3.13A87.6,87.6,0,0,0,277,298.74Z" style="fill:#e5c8a5"/><circle cx="210.2" cy="209.11" r="2.1" style="fill:#fff"/><circle cx="283.69" cy="209.11" r="2.1" style="fill:#fff"/><circle cx="199.5" cy="241.11" r="14" style="fill:#ed9898"/><circle cx="302.5" cy="241.11" r="14" style="fill:#ed9898"/></svg>