<svg xmlns="http://www.w3.org/2000/svg" data-name="Warstwa 1" width="500" height="500"><rect id="backgroundrect" width="100%" height="100%" x="0" y="0" fill="none" stroke="none"/><title>Slowersilesia</title><g class="currentLayer" style=""><title>Layer 1</title><path d="M128,242c57.12-146.12,103.86-99.95,138,0" style="fill:#9ed82e" id="svg_1"/><path d="M221,239c55.46-119.32,100.84-81.61,134,0" style="fill:#9ed82e" id="svg_2"/><rect x="184.4499969482422" y="216.72999572753906" width="10.229999542236328" height="24.270000457763672" style="fill:#00796b" id="svg_3"/><polygon points="189.57 182.64 164 223.54 215.14 223.54 189.57 182.64" style="fill:#00796b" id="svg_4"/><polygon points="188.72 169 167.41 203.09 210.02 203.09 188.72 169" style="fill:#00796b" id="svg_5"/><rect x="249" y="227" width="6" height="13" style="fill:#00796b" id="svg_6"/><polygon points="252 207 237 231 267 231 252 207" style="fill:#00796b" id="svg_7"/><polygon points="251.5 199 239 219 264 219 251.5 199" style="fill:#00796b" id="svg_8"/><rect x="295.7300109863281" y="219.36000061035156" width="8.859999656677246" height="22.639999389648438" style="fill:#00796b" id="svg_9"/><polygon points="300.16 189.82 278 225.27 322.32 225.27 300.16 189.82" style="fill:#00796b" id="svg_10"/><polygon points="299.42 178 280.95 207.54 317.89 207.54 299.42 178" style="fill:#00796b" id="svg_11"/><path d="M127.24,260.37a1.72,1.72,0,0,1-.44.52,1,1,0,0,1-.58.17,1.54,1.54,0,0,1-.86-.34q-.48-.35-1.2-.77a9.34,9.34,0,0,0-1.73-.77,7.41,7.41,0,0,0-2.41-.35,7,7,0,0,0-2.31.35,4.85,4.85,0,0,0-1.66.94,3.94,3.94,0,0,0-1,1.4,4.38,4.38,0,0,0-.34,1.75,3.18,3.18,0,0,0,.62,2,5.32,5.32,0,0,0,1.62,1.36,12.83,12.83,0,0,0,2.28,1l2.61.87a26.65,26.65,0,0,1,2.61,1,9.23,9.23,0,0,1,2.28,1.47,6.8,6.8,0,0,1,1.62,2.17,7.24,7.24,0,0,1,.62,3.15,10.12,10.12,0,0,1-.68,3.72,8.75,8.75,0,0,1-2,3,9.16,9.16,0,0,1-3.19,2,11.69,11.69,0,0,1-4.3.74,13.84,13.84,0,0,1-5.37-1.08,12.89,12.89,0,0,1-2.27-1.23,11.23,11.23,0,0,1-1.89-1.62l1.28-2.13a1.71,1.71,0,0,1,.45-.42,1.09,1.09,0,0,1,.6-.17,1.72,1.72,0,0,1,1,.46q.57.46,1.42,1a11,11,0,0,0,2,1,8,8,0,0,0,2.88.46,7.72,7.72,0,0,0,2.47-.37,5.06,5.06,0,0,0,1.83-1,4.55,4.55,0,0,0,1.14-1.64,5.54,5.54,0,0,0,.4-2.13,3.58,3.58,0,0,0-.61-2.15,5,5,0,0,0-1.61-1.4,11.83,11.83,0,0,0-2.28-1l-2.61-.83a26,26,0,0,1-2.61-1,8.51,8.51,0,0,1-2.28-1.47,6.67,6.67,0,0,1-1.61-2.28,8.34,8.34,0,0,1-.61-3.38,8,8,0,0,1,.63-3.12A7.91,7.91,0,0,1,113,257.7a9,9,0,0,1,3-1.86,10.78,10.78,0,0,1,4-.7,13,13,0,0,1,4.65.8,10.8,10.8,0,0,1,3.69,2.31Z" style="fill:#00796b" id="svg_12" class="" transform=""/><path d="M113.75,315.35a3.33,3.33,0,0,1-2.54-.94,3.6,3.6,0,0,1-.89-2.58v-7.1H109a.6.6,0,0,1-.42-.16.63.63,0,0,1-.17-.48v-1.21l2-.33.64-3.47a.69.69,0,0,1,.24-.38.7.7,0,0,1,.45-.14h1.58v4h3.39v2.18h-3.39v6.89a1.38,1.38,0,0,0,.29.93,1,1,0,0,0,.8.33,1.43,1.43,0,0,0,.48-.07l.33-.14.25-.14a.42.42,0,0,1,.22-.07.35.35,0,0,1,.22.07,1,1,0,0,1,.19.2l.92,1.49a4.63,4.63,0,0,1-1.54.84A5.7,5.7,0,0,1,113.75,315.35Z" style="fill:#00796b" id="svg_25"/><path d="M118.43,304.22a7.54,7.54,0,0,1,5.28-2,5.17,5.17,0,0,1,2,.37,4.23,4.23,0,0,1,1.49,1,4.36,4.36,0,0,1,.92,1.55,6,6,0,0,1,.32,2v8H127a1.4,1.4,0,0,1-.67-.13.9.9,0,0,1-.37-.53l-.27-.92a11,11,0,0,1-.94.76,5.61,5.61,0,0,1-1,.55,5.13,5.13,0,0,1-1.06.34,6,6,0,0,1-1.24.12,4.88,4.88,0,0,1-1.49-.22,3.26,3.26,0,0,1-1.18-.65,2.93,2.93,0,0,1-.77-1.08,3.83,3.83,0,0,1-.27-1.5,3,3,0,0,1,.16-1,2.82,2.82,0,0,1,.53-.91,4.38,4.38,0,0,1,.95-.82,6.16,6.16,0,0,1,1.43-.67,12.44,12.44,0,0,1,2-.46,20,20,0,0,1,2.58-.22v-.74a2.78,2.78,0,0,0-.55-1.89,2,2,0,0,0-1.57-.61,3.74,3.74,0,0,0-1.23.17,5.14,5.14,0,0,0-.86.39l-.67.39a1.33,1.33,0,0,1-.67.17.88.88,0,0,1-.54-.17,1.4,1.4,0,0,1-.36-.39Zm7,5.51a16.85,16.85,0,0,0-2.23.23,6,6,0,0,0-1.45.43,1.91,1.91,0,0,0-.78.61,1.5,1.5,0,0,0,.24,1.91,2.06,2.06,0,0,0,1.25.35,3.62,3.62,0,0,0,1.63-.34,4.82,4.82,0,0,0,1.34-1Z" style="fill:#00796b" id="svg_26"/><path d="M134.89,298.74a1.76,1.76,0,0,1-.16.74,2,2,0,0,1-1.05,1,1.91,1.91,0,0,1-.77.16,1.84,1.84,0,0,1-.75-.16,2,2,0,0,1-.61-.42,2,2,0,0,1-.42-.61,1.8,1.8,0,0,1-.15-.74,1.91,1.91,0,0,1,.15-.77,2,2,0,0,1,.42-.62,2,2,0,0,1,.61-.41,1.84,1.84,0,0,1,.75-.16,1.91,1.91,0,0,1,.77.16,2,2,0,0,1,.63.41,2,2,0,0,1,.43.62A1.87,1.87,0,0,1,134.89,298.74Zm-.42,3.7v12.71H131.4V302.44Z" style="fill:#00796b" id="svg_27"/><path d="M140.69,296.75v18.41h-3.06V296.75Z" style="fill:#00796b" id="svg_28"/><path d="M149.37,302.25a6.93,6.93,0,0,1,2.57.46,5.61,5.61,0,0,1,2,1.3,5.7,5.7,0,0,1,1.27,2.06,8.5,8.5,0,0,1,0,5.44,5.83,5.83,0,0,1-1.27,2.07,5.55,5.55,0,0,1-2,1.31,6.93,6.93,0,0,1-2.57.46,7,7,0,0,1-2.59-.46,5.54,5.54,0,0,1-2-1.31,5.91,5.91,0,0,1-1.28-2.07,8.4,8.4,0,0,1,0-5.44,5.78,5.78,0,0,1,1.28-2.06,5.6,5.6,0,0,1,2-1.3A7,7,0,0,1,149.37,302.25Zm0,10.74a2.69,2.69,0,0,0,2.35-1.06,5.34,5.34,0,0,0,.76-3.12,5.4,5.4,0,0,0-.76-3.13,2.68,2.68,0,0,0-2.35-1.08,2.73,2.73,0,0,0-2.38,1.08,5.34,5.34,0,0,0-.77,3.13,5.27,5.27,0,0,0,.77,3.11A2.74,2.74,0,0,0,149.37,313Z" style="fill:#00796b" id="svg_29"/><path d="M160.86,304.65a5.48,5.48,0,0,1,1.41-1.79,3,3,0,0,1,1.93-.65,2.37,2.37,0,0,1,1.41.38l-.2,2.29a.6.6,0,0,1-.18.32.49.49,0,0,1-.32.09,3.63,3.63,0,0,1-.55-.06,4.29,4.29,0,0,0-.71-.06,2.55,2.55,0,0,0-.9.15,2.26,2.26,0,0,0-.71.43,2.91,2.91,0,0,0-.56.67,6.67,6.67,0,0,0-.45.9v7.83H158V302.44h1.8a.74.74,0,0,1,.9.77Z" style="fill:#00796b" id="svg_30"/><path d="M166.87,306.4h6.42v2.55h-6.42Z" style="fill:#00796b" id="svg_31"/><path d="M176.21,315.15V302.44h1.87a.75.75,0,0,1,.78.56l.2.94a7.41,7.41,0,0,1,.7-.68,4.5,4.5,0,0,1,.78-.53,4.25,4.25,0,0,1,.89-.35,4,4,0,0,1,1-.13,3,3,0,0,1,2,.65,3.92,3.92,0,0,1,1.16,1.73,3.86,3.86,0,0,1,.74-1.08,4.05,4.05,0,0,1,1-.74,4.51,4.51,0,0,1,1.13-.42,5.44,5.44,0,0,1,1.21-.14,5.07,5.07,0,0,1,1.87.32,3.59,3.59,0,0,1,1.38.94,4.16,4.16,0,0,1,.85,1.51,6.61,6.61,0,0,1,.29,2v8.09H191v-8.09a2.72,2.72,0,0,0-.53-1.83,2,2,0,0,0-1.56-.61,2.35,2.35,0,0,0-.87.16,2.08,2.08,0,0,0-.71.46,2.11,2.11,0,0,0-.48.76,3,3,0,0,0-.17,1.05v8.09H183.6v-8.09a2.76,2.76,0,0,0-.51-1.86,1.9,1.9,0,0,0-1.5-.58,2.47,2.47,0,0,0-1.25.33,4.15,4.15,0,0,0-1.07.9v9.3Z" style="fill:#00796b" id="svg_32"/><path d="M196.66,304.22a7.54,7.54,0,0,1,5.28-2,5.17,5.17,0,0,1,2,.37,4.23,4.23,0,0,1,1.49,1,4.36,4.36,0,0,1,.92,1.55,6,6,0,0,1,.32,2v8h-1.39a1.4,1.4,0,0,1-.67-.13.9.9,0,0,1-.37-.53l-.27-.92a11,11,0,0,1-.94.76,5.61,5.61,0,0,1-1,.55,5.13,5.13,0,0,1-1.06.34,6,6,0,0,1-1.24.12,4.88,4.88,0,0,1-1.49-.22,3.26,3.26,0,0,1-1.18-.65,2.93,2.93,0,0,1-.77-1.08,3.83,3.83,0,0,1-.27-1.5,3,3,0,0,1,.16-1,2.82,2.82,0,0,1,.53-.91,4.38,4.38,0,0,1,.95-.82,6.16,6.16,0,0,1,1.43-.67,12.44,12.44,0,0,1,2-.46,20,20,0,0,1,2.58-.22v-.74a2.78,2.78,0,0,0-.55-1.89,2,2,0,0,0-1.57-.61,3.74,3.74,0,0,0-1.23.17,5.14,5.14,0,0,0-.86.39l-.67.39a1.33,1.33,0,0,1-.67.17.88.88,0,0,1-.54-.17,1.4,1.4,0,0,1-.36-.39Zm7,5.51a16.85,16.85,0,0,0-2.23.23,6,6,0,0,0-1.45.43,1.91,1.91,0,0,0-.78.61,1.5,1.5,0,0,0,.24,1.91,2.06,2.06,0,0,0,1.25.35,3.62,3.62,0,0,0,1.63-.34,4.82,4.82,0,0,0,1.34-1Z" style="fill:#00796b" id="svg_33"/><path d="M220.56,296.75v18.41h-1.87a.72.72,0,0,1-.77-.56l-.26-1.23a6.42,6.42,0,0,1-1.76,1.42,4.77,4.77,0,0,1-2.32.54,4.21,4.21,0,0,1-1.91-.43,4.26,4.26,0,0,1-1.49-1.26,6,6,0,0,1-1-2,10.27,10.27,0,0,1-.34-2.77,8.67,8.67,0,0,1,.38-2.63,6.39,6.39,0,0,1,1.1-2.11,5.13,5.13,0,0,1,1.72-1.39,5,5,0,0,1,2.25-.5,4.47,4.47,0,0,1,1.82.33,4.67,4.67,0,0,1,1.35.9v-6.7Zm-3.06,8.94a3,3,0,0,0-1.13-.89,3.34,3.34,0,0,0-1.32-.26,2.91,2.91,0,0,0-1.25.26,2.53,2.53,0,0,0-1,.79,3.8,3.8,0,0,0-.61,1.34,7.67,7.67,0,0,0-.21,1.91,8.53,8.53,0,0,0,.18,1.89,3.71,3.71,0,0,0,.51,1.26,1.94,1.94,0,0,0,.82.71,2.6,2.6,0,0,0,1.08.22,3.14,3.14,0,0,0,1.62-.4,4.84,4.84,0,0,0,1.26-1.13Z" style="fill:#00796b" id="svg_34"/><path d="M225.94,309.18a6,6,0,0,0,.35,1.69A3.45,3.45,0,0,0,227,312a2.81,2.81,0,0,0,1.06.69,3.84,3.84,0,0,0,1.36.23,4.19,4.19,0,0,0,1.28-.17,6,6,0,0,0,.94-.38l.71-.38a1.19,1.19,0,0,1,.59-.17.63.63,0,0,1,.57.29l.88,1.11a5.09,5.09,0,0,1-1.14,1,6.37,6.37,0,0,1-1.32.64,7.22,7.22,0,0,1-1.4.34,10.11,10.11,0,0,1-1.38.1,6.79,6.79,0,0,1-2.46-.44,5.51,5.51,0,0,1-2-1.3,6.08,6.08,0,0,1-1.33-2.13,8.24,8.24,0,0,1-.48-2.94,7,7,0,0,1,.42-2.45,5.89,5.89,0,0,1,1.21-2,5.68,5.68,0,0,1,1.92-1.34,6.32,6.32,0,0,1,2.56-.5,6.22,6.22,0,0,1,2.22.38,4.85,4.85,0,0,1,1.75,1.12,5.21,5.21,0,0,1,1.15,1.81,6.74,6.74,0,0,1,.41,2.45,2,2,0,0,1-.15.93.61.61,0,0,1-.57.24Zm5.83-1.85a3.69,3.69,0,0,0-.17-1.12,2.69,2.69,0,0,0-.5-.92,2.33,2.33,0,0,0-.85-.62,2.9,2.9,0,0,0-1.2-.23,2.83,2.83,0,0,0-2.09.76,3.7,3.7,0,0,0-1,2.14Z" style="fill:#00796b" id="svg_35"/><path d="M254,302.88V304q0,.54-.66.67l-1.14.21a3.86,3.86,0,0,1,.26,1.44,3.72,3.72,0,0,1-1.42,3,4.89,4.89,0,0,1-1.58.82,6.41,6.41,0,0,1-2,.29,6.57,6.57,0,0,1-.72,0l-.68-.1q-.59.36-.59.8a.59.59,0,0,0,.35.56,2.87,2.87,0,0,0,.94.25,13.13,13.13,0,0,0,1.33.09q.74,0,1.52.08a12.12,12.12,0,0,1,1.52.22,4.5,4.5,0,0,1,1.33.49,2.6,2.6,0,0,1,.93.91,2.8,2.8,0,0,1,.35,1.48,3.49,3.49,0,0,1-.42,1.63,4.4,4.4,0,0,1-1.2,1.41,6.29,6.29,0,0,1-1.93,1,8.31,8.31,0,0,1-2.61.38,10,10,0,0,1-2.5-.28,6,6,0,0,1-1.77-.74,3.2,3.2,0,0,1-1.05-1.07,2.51,2.51,0,0,1-.35-1.26,2.15,2.15,0,0,1,.54-1.49,3.74,3.74,0,0,1,1.48-1,2.13,2.13,0,0,1-.81-.69,2,2,0,0,1-.3-1.14,1.79,1.79,0,0,1,.11-.59,2.49,2.49,0,0,1,.31-.6,3,3,0,0,1,.51-.56,3.57,3.57,0,0,1,.73-.48,4,4,0,0,1-1.52-1.39,3.71,3.71,0,0,1-.55-2,3.78,3.78,0,0,1,.38-1.7,3.82,3.82,0,0,1,1.05-1.3,4.79,4.79,0,0,1,1.6-.82,7.2,7.2,0,0,1,3.55-.12,5.23,5.23,0,0,1,1.31.49Zm-3,12.84a.85.85,0,0,0-.22-.61,1.47,1.47,0,0,0-.61-.37,4.51,4.51,0,0,0-.9-.19q-.51-.06-1.09-.09l-1.19-.06q-.61,0-1.2-.1a2.84,2.84,0,0,0-.82.67,1.36,1.36,0,0,0-.32.89,1.23,1.23,0,0,0,.17.63,1.39,1.39,0,0,0,.53.5,3.2,3.2,0,0,0,.95.33,7.36,7.36,0,0,0,1.42.12,7.25,7.25,0,0,0,1.47-.13,3.53,3.53,0,0,0,1-.36,1.54,1.54,0,0,0,.59-.54A1.33,1.33,0,0,0,250.93,315.72Zm-3.46-7.23a2.86,2.86,0,0,0,1-.16,2,2,0,0,0,.7-.43,1.75,1.75,0,0,0,.42-.66,2.41,2.41,0,0,0,.14-.84,2,2,0,0,0-.56-1.49,2.87,2.87,0,0,0-3.38,0,2,2,0,0,0-.56,1.49,2.38,2.38,0,0,0,.14.83,1.82,1.82,0,0,0,.42.66,1.9,1.9,0,0,0,.71.43A2.88,2.88,0,0,0,247.47,308.49Z" style="fill:#00796b" id="svg_36"/><path d="M266.86,302.44v12.71H265a.72.72,0,0,1-.77-.56l-.21-1a6.83,6.83,0,0,1-1.72,1.28,4.75,4.75,0,0,1-2.22.49,4.52,4.52,0,0,1-1.84-.35,3.68,3.68,0,0,1-1.34-1,4.35,4.35,0,0,1-.82-1.53,6.48,6.48,0,0,1-.28-2v-8.08h3.06v8.08a2.71,2.71,0,0,0,.54,1.8A2,2,0,0,0,261,313a3.23,3.23,0,0,0,1.49-.35,5.19,5.19,0,0,0,1.31-1v-9.19Z" style="fill:#00796b" id="svg_37"/><path d="M273.47,298.74a1.76,1.76,0,0,1-.16.74,2,2,0,0,1-1.05,1,1.91,1.91,0,0,1-.77.16,1.84,1.84,0,0,1-.75-.16,2,2,0,0,1-.61-.42,2,2,0,0,1-.42-.61,1.8,1.8,0,0,1-.15-.74,1.91,1.91,0,0,1,.15-.77,2,2,0,0,1,.42-.62,2,2,0,0,1,.61-.41,1.84,1.84,0,0,1,.75-.16,1.91,1.91,0,0,1,.77.16,2,2,0,0,1,.63.41,2,2,0,0,1,.43.62A1.87,1.87,0,0,1,273.47,298.74Zm-.42,3.7v12.71H270V302.44Z" style="fill:#00796b" id="svg_38"/><path d="M287.21,296.75v18.41h-1.87a.72.72,0,0,1-.77-.56l-.26-1.23a6.42,6.42,0,0,1-1.76,1.42,4.77,4.77,0,0,1-2.32.54,4.21,4.21,0,0,1-1.91-.43,4.26,4.26,0,0,1-1.49-1.26,6,6,0,0,1-1-2,10.27,10.27,0,0,1-.34-2.77,8.67,8.67,0,0,1,.38-2.63,6.39,6.39,0,0,1,1.1-2.11,5.13,5.13,0,0,1,1.72-1.39,5,5,0,0,1,2.25-.5,4.47,4.47,0,0,1,1.82.33,4.67,4.67,0,0,1,1.35.9v-6.7Zm-3.06,8.94a3,3,0,0,0-1.13-.89,3.34,3.34,0,0,0-1.32-.26,2.91,2.91,0,0,0-1.25.26,2.53,2.53,0,0,0-1,.79,3.8,3.8,0,0,0-.61,1.34,7.67,7.67,0,0,0-.21,1.91,8.53,8.53,0,0,0,.18,1.89,3.71,3.71,0,0,0,.51,1.26,1.94,1.94,0,0,0,.82.71,2.6,2.6,0,0,0,1.08.22,3.14,3.14,0,0,0,1.62-.4,4.84,4.84,0,0,0,1.26-1.13Z" style="fill:#00796b" id="svg_39"/><path d="M292.58,309.18a6,6,0,0,0,.35,1.69,3.45,3.45,0,0,0,.72,1.18,2.81,2.81,0,0,0,1.06.69,3.84,3.84,0,0,0,1.36.23,4.19,4.19,0,0,0,1.28-.17,6,6,0,0,0,.94-.38L299,312a1.19,1.19,0,0,1,.59-.17.63.63,0,0,1,.57.29l.88,1.11a5.09,5.09,0,0,1-1.14,1,6.37,6.37,0,0,1-1.32.64,7.22,7.22,0,0,1-1.4.34,10.11,10.11,0,0,1-1.38.1,6.79,6.79,0,0,1-2.46-.44,5.51,5.51,0,0,1-2-1.3,6.08,6.08,0,0,1-1.33-2.13,8.24,8.24,0,0,1-.48-2.94,7,7,0,0,1,.42-2.45,5.89,5.89,0,0,1,1.21-2,5.68,5.68,0,0,1,1.92-1.34,6.32,6.32,0,0,1,2.56-.5,6.22,6.22,0,0,1,2.22.38,4.85,4.85,0,0,1,1.75,1.12,5.21,5.21,0,0,1,1.15,1.81,6.74,6.74,0,0,1,.41,2.45,2,2,0,0,1-.15.93.61.61,0,0,1-.57.24Zm5.83-1.85a3.69,3.69,0,0,0-.17-1.12,2.69,2.69,0,0,0-.5-.92,2.33,2.33,0,0,0-.85-.62,2.9,2.9,0,0,0-1.2-.23,2.83,2.83,0,0,0-2.09.76,3.7,3.7,0,0,0-1,2.14Z" style="fill:#00796b" id="svg_40"/><path d="M314.49,296.75v18.41h-1.87a.72.72,0,0,1-.77-.56l-.26-1.23a6.42,6.42,0,0,1-1.76,1.42,4.77,4.77,0,0,1-2.32.54,4.21,4.21,0,0,1-1.91-.43,4.26,4.26,0,0,1-1.49-1.26,6,6,0,0,1-1-2,10.27,10.27,0,0,1-.34-2.77,8.67,8.67,0,0,1,.38-2.63,6.39,6.39,0,0,1,1.1-2.11,5.13,5.13,0,0,1,1.72-1.39,5,5,0,0,1,2.25-.5,4.47,4.47,0,0,1,1.82.33,4.67,4.67,0,0,1,1.35.9v-6.7Zm-3.06,8.94a3,3,0,0,0-1.13-.89,3.34,3.34,0,0,0-1.32-.26,2.91,2.91,0,0,0-1.25.26,2.53,2.53,0,0,0-1,.79,3.8,3.8,0,0,0-.61,1.34,7.67,7.67,0,0,0-.21,1.91,8.53,8.53,0,0,0,.18,1.89,3.71,3.71,0,0,0,.51,1.26,1.94,1.94,0,0,0,.82.71,2.6,2.6,0,0,0,1.08.22,3.14,3.14,0,0,0,1.62-.4,4.84,4.84,0,0,0,1.26-1.13Z" style="fill:#00796b" id="svg_41"/><path d="M327.77,315.35a3.33,3.33,0,0,1-2.54-.94,3.6,3.6,0,0,1-.89-2.58v-7.1H323a.6.6,0,0,1-.42-.16.63.63,0,0,1-.17-.48v-1.21l2-.33.64-3.47a.69.69,0,0,1,.24-.38.7.7,0,0,1,.45-.14h1.58v4h3.39v2.18H327.4v6.89a1.38,1.38,0,0,0,.29.93,1,1,0,0,0,.8.33,1.43,1.43,0,0,0,.48-.07l.33-.14.25-.14a.42.42,0,0,1,.22-.07.35.35,0,0,1,.22.07,1,1,0,0,1,.19.2l.92,1.49a4.63,4.63,0,0,1-1.54.84A5.7,5.7,0,0,1,327.77,315.35Z" style="fill:#00796b" id="svg_42"/><path d="M338.27,302.25a6.93,6.93,0,0,1,2.57.46,5.61,5.61,0,0,1,2,1.3,5.7,5.7,0,0,1,1.27,2.06,8.5,8.5,0,0,1,0,5.44,5.83,5.83,0,0,1-1.27,2.07,5.55,5.55,0,0,1-2,1.31,6.93,6.93,0,0,1-2.57.46,7,7,0,0,1-2.59-.46,5.54,5.54,0,0,1-2-1.31,5.91,5.91,0,0,1-1.28-2.07,8.4,8.4,0,0,1,0-5.44A5.78,5.78,0,0,1,333.7,304a5.6,5.6,0,0,1,2-1.3A7,7,0,0,1,338.27,302.25Zm0,10.74a2.69,2.69,0,0,0,2.35-1.06,5.34,5.34,0,0,0,.76-3.12,5.4,5.4,0,0,0-.76-3.13,2.68,2.68,0,0,0-2.35-1.08,2.73,2.73,0,0,0-2.38,1.08,5.34,5.34,0,0,0-.77,3.13,5.27,5.27,0,0,0,.77,3.11A2.74,2.74,0,0,0,338.27,313Z" style="fill:#00796b" id="svg_43"/><path d="M357.83,302.44v12.71H356a.72.72,0,0,1-.77-.56l-.21-1a6.83,6.83,0,0,1-1.72,1.28,4.75,4.75,0,0,1-2.22.49,4.52,4.52,0,0,1-1.84-.35,3.68,3.68,0,0,1-1.34-1,4.35,4.35,0,0,1-.82-1.53,6.48,6.48,0,0,1-.28-2v-8.08h3.06v8.08a2.71,2.71,0,0,0,.54,1.8A2,2,0,0,0,352,313a3.23,3.23,0,0,0,1.49-.35,5.19,5.19,0,0,0,1.31-1v-9.19Z" style="fill:#00796b" id="svg_44"/><path d="M363.74,304.65a5.48,5.48,0,0,1,1.41-1.79,3,3,0,0,1,1.93-.65,2.37,2.37,0,0,1,1.41.38l-.2,2.29a.6.6,0,0,1-.18.32.49.49,0,0,1-.32.09,3.63,3.63,0,0,1-.55-.06,4.29,4.29,0,0,0-.71-.06,2.55,2.55,0,0,0-.9.15,2.26,2.26,0,0,0-.71.43,2.91,2.91,0,0,0-.56.67,6.67,6.67,0,0,0-.45.9v7.83h-3.06V302.44h1.8a.74.74,0,0,1,.9.77Z" style="fill:#00796b" id="svg_45"/><path d="M377.81,304.92a.82.82,0,0,1-.26.28.68.68,0,0,1-.35.08,1.1,1.1,0,0,1-.48-.12l-.59-.28a5.6,5.6,0,0,0-.76-.28,3.67,3.67,0,0,0-1-.12,2.32,2.32,0,0,0-1.42.38,1.2,1.2,0,0,0-.51,1,1,1,0,0,0,.27.69,2.41,2.41,0,0,0,.71.49,7,7,0,0,0,1,.38l1.13.37q.58.2,1.13.45a4,4,0,0,1,1,.64,3,3,0,0,1,.71.94,3,3,0,0,1,.27,1.31,4.28,4.28,0,0,1-.33,1.69,3.66,3.66,0,0,1-1,1.34,4.59,4.59,0,0,1-1.59.88,7.45,7.45,0,0,1-3.47.2,7.5,7.5,0,0,1-1.2-.33,6.55,6.55,0,0,1-1.07-.5,5.18,5.18,0,0,1-.86-.62l.71-1.16a1,1,0,0,1,.32-.32.91.91,0,0,1,.47-.11,1,1,0,0,1,.54.16l.59.35a5.27,5.27,0,0,0,.79.35,3.45,3.45,0,0,0,1.15.16,3,3,0,0,0,.93-.13,2,2,0,0,0,.64-.34,1.28,1.28,0,0,0,.37-.49,1.46,1.46,0,0,0,.12-.58,1,1,0,0,0-.27-.73,2.33,2.33,0,0,0-.71-.5,6.86,6.86,0,0,0-1-.38l-1.15-.37a10.62,10.62,0,0,1-1.15-.46,3.92,3.92,0,0,1-1-.67,3,3,0,0,1-.71-1,3.5,3.5,0,0,1-.27-1.44,3.67,3.67,0,0,1,.31-1.49,3.49,3.49,0,0,1,.91-1.23,4.52,4.52,0,0,1,1.5-.84,6.23,6.23,0,0,1,2.07-.32,6.35,6.35,0,0,1,2.39.43,5.39,5.39,0,0,1,1.8,1.14Z" style="fill:#00796b" id="svg_46"/><rect x="108" y="325" width="272.9800109863281" height="6" style="fill:#9ed82e" id="svg_47"/><rect x="109.0199966430664" y="239" width="272.9800109863281" height="6" style="fill:#9ed82e" id="svg_48"/><g class="" transform=""><path d="M 153.024 281.77 v 3.74 H 135.076 v -30 h 4.65128 v 26.29 Z" style="fill:#00796b" id="svg_13" class="" transform=""/><path d="M 164.674 263.93 a 11.7221 11.24 0 0 1 4.42185 0.76 a 9.20871 8.83 0 0 1 3.3581 2.2 a 10.2099 9.79 0 0 1 2.08578 3.45 a 15.4452 14.81 0 0 1 0 9.07 a 10.0847 9.67 0 0 1 -2.08578 3.45 a 9.27128 8.89 0 0 1 -3.3581 2.19 a 12.7024 12.18 0 0 1 -8.85413 0 a 9.386 9 0 0 1 -3.36853 -2.19 a 10.116 9.7 0 0 1 -2.14835 -3.45 a 15.2262 14.6 0 0 1 0 -9.07 a 10.2412 9.82 0 0 1 2.14835 -3.45 a 9.30257 8.92 0 0 1 3.36853 -2.2 A 11.7742 11.29 0 0 1 164.674 263.93 Z m 0 18.7 a 5.43345 5.21 0 0 0 4.693 -2 a 12.2539 11.75 0 0 0 0 -11.43 a 5.42302 5.2 0 0 0 -4.693 -2 a 5.49602 5.27 0 0 0 -4.74514 2 a 12.1601 11.66 0 0 0 0 11.43 A 5.50645 5.28 0 0 0 164.674 282.63 Z" style="fill:#00796b" id="svg_14" class="" transform=""/><path d="M 210.55 264.26 l -7.13336 21.25 h -3.39982 c -0.406727 0 -0.688307 -0.26 -0.823882 -0.77 L 194.521 270.89 q -0.177291 -0.52 -0.302438 -1 t -0.239864 -1 a 15.7163 15.07 0 0 1 -0.542302 2.11 l -4.73472 13.8 a 0.928171 0.89 0 0 1 -0.9386 0.77 h -3.23296 l -7.15422 -21.25 h 3.3581 a 1.41833 1.36 0 0 1 0.84474 0.23 a 1.13675 1.09 0 0 1 0.448442 0.59 l 3.99426 13.05 q 0.198149 0.79 0.344153 1.55 t 0.28158 1.51 q 0.198149 -0.75 0.427584 -1.51 l 0.4693 -1.55 L 191.966 265 a 1.13675 1.09 0 0 1 0.417156 -0.58 a 1.20975 1.16 0 0 1 0.740451 -0.22 h 1.85634 a 1.32447 1.27 0 0 1 0.792595 0.22 a 1.10546 1.06 0 0 1 0.427584 0.58 l 4.31756 13.14 q 0.239864 0.79 0.458871 1.56 t 0.396298 1.54 q 0.135576 -0.75 0.302438 -1.52 t 0.396298 -1.58 l 4.05684 -13.05 a 1.13675 1.09 0 0 1 0.448442 -0.59 a 1.30361 1.25 0 0 1 0.771738 -0.23 Z" style="fill:#00796b" id="svg_15" class="" transform=""/><path d="M 232.065 282.48 a 8.34311 8 0 0 1 -1.81463 1.52 a 10.481 10.05 0 0 1 -2.17964 1 a 13.1404 12.6 0 0 1 -2.38822 0.59 a 15.393 14.76 0 0 1 -2.42993 0.19 a 11.4718 11 0 0 1 -4.24456 -0.74 a 9.386 9 0 0 1 -3.37896 -2.18 a 10.3455 9.92 0 0 1 -2.22135 -3.56 a 14.9863 14.37 0 0 1 -0.792595 -4.88 a 12.619 12.1 0 0 1 0.719593 -4.13 a 10.4289 10 0 0 1 2.08578 -3.34 a 9.50072 9.11 0 0 1 3.2851 -2.24 a 10.7835 10.34 0 0 1 4.35927 -0.82 a 10.262 9.84 0 0 1 3.74397 0.64 a 8.34311 8 0 0 1 2.95138 1.85 a 8.93756 8.57 0 0 1 1.9502 3 a 11.8055 11.32 0 0 1 0.709164 4.06 a 2.70108 2.59 0 0 1 -0.219007 1.26 a 0.886455 0.85 0 0 1 -0.803025 0.32 H 216.808 a 11.9515 11.46 0 0 0 0.56316 3.32 a 6.9665 6.68 0 0 0 1.38704 2.35 a 5.49602 5.27 0 0 0 2.08578 1.4 a 7.38365 7.08 0 0 0 2.72194 0.46 a 8.18668 7.85 0 0 0 2.45079 -0.31 a 11.9098 11.42 0 0 0 1.79377 -0.68 q 0.75088 -0.36 1.2619 -0.68 a 1.74162 1.67 0 0 1 0.907313 -0.31 a 0.9386 0.9 0 0 1 0.803025 0.38 Z m -3.51454 -10 a 7.30022 7 0 0 0 -0.354582 -2.24 a 5.3083 5.09 0 0 0 -1.04289 -1.78 a 4.81815 4.62 0 0 0 -1.69991 -1.17 a 5.75675 5.52 0 0 0 -2.31521 -0.42 a 5.68374 5.45 0 0 0 -4.17156 1.48 a 7.48794 7.18 0 0 0 -1.9502 4.12 Z" style="fill:#00796b" id="svg_16" class="" transform=""/><path d="M 240.95 268.34 a 10.1473 9.73 0 0 1 2.57594 -3.28 a 5.86104 5.62 0 0 1 4.98501 -1 a 3.53539 3.39 0 0 1 1.12632 0.47 l -0.28158 3.08 a 0.688307 0.66 0 0 1 -0.719593 0.56 A 5.21444 5 0 0 1 247.708 268 a 6.82049 6.54 0 0 0 -1.30361 -0.12 a 5.13101 4.92 0 0 0 -1.81463 0.28 a 4.2237 4.05 0 0 0 -1.4079 0.84 a 5.96532 5.72 0 0 0 -1.10546 1.36 a 14.225 13.64 0 0 0 -0.896884 1.83 v 13.3 h -4.25499 V 264.26 H 239.365 a 1.35576 1.3 0 0 1 0.949029 0.24 a 1.65819 1.59 0 0 1 0.354582 0.85 Z" style="fill:#00796b" id="svg_17" class="" transform=""/><path d="M 280.1 260.37 a 1.79377 1.72 0 0 1 -0.458871 0.52 a 1.04289 1 0 0 1 -0.604876 0.17 a 1.60605 1.54 0 0 1 -0.896884 -0.34 q -0.500587 -0.35 -1.25147 -0.77 a 9.74058 9.34 0 0 0 -1.8042 -0.77 a 7.72781 7.41 0 0 0 -2.51336 -0.35 a 7.30022 7 0 0 0 -2.40907 0.35 a 5.05801 4.85 0 0 0 -1.7312 0.94 a 4.10898 3.94 0 0 0 -1.04289 1.4 a 4.56785 4.38 0 0 0 -0.354582 1.75 a 3.31639 3.18 0 0 0 0.646591 2 a 5.54817 5.32 0 0 0 1.68948 1.36 a 13.3803 12.83 0 0 0 2.37779 1 l 2.72194 0.87 a 27.793 26.65 0 0 1 2.72194 1 a 9.62586 9.23 0 0 1 2.37779 1.47 a 7.09164 6.8 0 0 1 1.68948 2.17 a 7.55052 7.24 0 0 1 0.646591 3.15 a 10.554 10.12 0 0 1 -0.709164 3.72 a 9.12528 8.75 0 0 1 -2.08578 3 a 9.55286 9.16 0 0 1 -3.32682 2 a 12.1914 11.69 0 0 1 -4.48442 0.74 a 14.4336 13.84 0 0 1 -5.60031 -1.08 a 13.4428 12.89 0 0 1 -2.36736 -1.23 a 11.7116 11.23 0 0 1 -1.97106 -1.62 l 1.3349 -2.13 a 1.78334 1.71 0 0 1 0.4693 -0.42 a 1.13675 1.09 0 0 1 0.625733 -0.17 a 1.79377 1.72 0 0 1 1.04289 0.46 q 0.594447 0.46 1.4809 1 a 11.4718 11 0 0 0 2.08578 1 a 8.34311 8 0 0 0 3.00352 0.46 a 8.0511 7.72 0 0 0 2.57594 -0.37 a 5.27702 5.06 0 0 0 1.90849 -1 a 4.74514 4.55 0 0 0 1.18889 -1.64 a 5.7776 5.54 0 0 0 0.417156 -2.13 a 3.73354 3.58 0 0 0 -0.636162 -2.15 a 5.21444 5 0 0 0 -1.67905 -1.4 a 12.3374 11.83 0 0 0 -2.37779 -1 l -2.72194 -0.83 a 27.1151 26 0 0 1 -2.72194 -1 a 8.87498 8.51 0 0 1 -2.37779 -1.47 a 6.95607 6.67 0 0 1 -1.67905 -2.28 a 8.69769 8.34 0 0 1 -0.636162 -3.38 a 8.34311 8 0 0 1 0.65702 -3.12 a 8.24925 7.91 0 0 1 1.90849 -2.67 a 9.386 9 0 0 1 3.12867 -1.86 a 11.2423 10.78 0 0 1 4.17156 -0.7 a 13.5576 13 0 0 1 4.84943 0.8 a 11.2632 10.8 0 0 1 3.84826 2.31 Z" style="fill:#00796b" id="svg_18" class="" transform=""/><path d="M 291.843 257.69 a 2.71151 2.6 0 0 1 -0.239864 1.08 a 3.12867 3 0 0 1 -0.646591 0.9 a 2.94095 2.82 0 0 1 -0.949029 0.61 a 2.89923 2.78 0 0 1 -1.13675 0.22 a 2.7428 2.63 0 0 1 -1.11589 -0.22 a 2.99309 2.87 0 0 1 -0.928171 -0.61 a 2.95138 2.83 0 0 1 -0.636162 -0.9 a 2.82623 2.71 0 0 1 -0.229436 -1.08 a 2.87837 2.76 0 0 1 0.229436 -1.1 a 3.00352 2.88 0 0 1 1.56433 -1.51 a 2.7428 2.63 0 0 1 1.11589 -0.22 a 2.89923 2.78 0 0 1 1.13675 0.22 a 2.94095 2.82 0 0 1 0.949029 0.61 a 3.12867 3 0 0 1 0.646591 0.9 A 2.76366 2.65 0 0 1 291.843 257.69 Z m -0.803025 6.57 v 21.25 h -4.25499 V 264.26 Z" style="fill:#00796b" id="svg_19" class="" transform=""/><path d="M 301.574 254.64 v 30.87 h -4.27584 V 254.64 Z" style="fill:#00796b" id="svg_20" class="" transform=""/><path d="M 325.821 282.48 a 8.34311 8 0 0 1 -1.81463 1.52 a 10.481 10.05 0 0 1 -2.17964 1 a 13.1404 12.6 0 0 1 -2.38822 0.59 a 15.393 14.76 0 0 1 -2.42993 0.19 a 11.4718 11 0 0 1 -4.24456 -0.74 a 9.386 9 0 0 1 -3.37896 -2.18 a 10.3455 9.92 0 0 1 -2.22135 -3.56 a 14.9863 14.37 0 0 1 -0.792595 -4.88 a 12.619 12.1 0 0 1 0.719593 -4.13 a 10.4289 10 0 0 1 2.08578 -3.34 a 9.50072 9.11 0 0 1 3.2851 -2.24 a 10.7835 10.34 0 0 1 4.35927 -0.82 a 10.262 9.84 0 0 1 3.74397 0.64 a 8.34311 8 0 0 1 2.95138 1.85 a 8.93756 8.57 0 0 1 1.9502 3 a 11.8055 11.32 0 0 1 0.709164 4.06 a 2.70108 2.59 0 0 1 -0.219007 1.26 a 0.886455 0.85 0 0 1 -0.803025 0.32 H 310.595 a 11.9515 11.46 0 0 0 0.56316 3.32 a 6.9665 6.68 0 0 0 1.38704 2.35 a 5.49602 5.27 0 0 0 2.08578 1.4 a 7.38365 7.08 0 0 0 2.72194 0.46 a 8.18668 7.85 0 0 0 2.45079 -0.31 a 11.9098 11.42 0 0 0 1.79377 -0.68 q 0.75088 -0.36 1.2619 -0.68 a 1.74162 1.67 0 0 1 0.907313 -0.31 a 0.9386 0.9 0 0 1 0.803025 0.38 Z m -3.51454 -10 a 7.30022 7 0 0 0 -0.354582 -2.24 a 5.3083 5.09 0 0 0 -1.04289 -1.78 a 4.81815 4.62 0 0 0 -1.69991 -1.17 a 5.75675 5.52 0 0 0 -2.31521 -0.42 a 5.68374 5.45 0 0 0 -4.17156 1.48 a 7.48794 7.18 0 0 0 -1.9502 4.12 Z" style="fill:#00796b" id="svg_21" class="" transform=""/><path d="M 343.8 267.92 a 1.16804 1.12 0 0 1 -0.37544 0.39 a 0.9386 0.9 0 0 1 -0.500587 0.12 a 1.59562 1.53 0 0 1 -0.771738 -0.23 q -0.427584 -0.23 -1.04289 -0.5 a 10.1786 9.76 0 0 0 -1.4079 -0.5 a 6.77878 6.5 0 0 0 -1.91892 -0.23 a 5.71503 5.48 0 0 0 -1.66862 0.22 a 3.94212 3.78 0 0 0 -1.27232 0.61 a 2.80537 2.69 0 0 0 -0.803025 0.92 a 2.57594 2.47 0 0 0 -0.28158 1.14 a 1.98149 1.9 0 0 0 0.490158 1.32 a 4.17156 4 0 0 0 1.28275 0.9 a 12.5147 12 0 0 0 1.81463 0.68 l 2.08578 0.64 q 1.04289 0.33 2.08578 0.76 a 7.5088 7.2 0 0 1 1.81463 1.07 a 5.21444 5 0 0 1 1.28275 1.54 a 4.90158 4.7 0 0 1 0.490158 2.2 a 7.30022 7 0 0 1 -0.552731 2.75 a 6.25733 6 0 0 1 -1.63734 2.19 a 7.70695 7.39 0 0 1 -2.6698 1.44 a 11.2215 10.76 0 0 1 -3.63968 0.52 a 11.4718 11 0 0 1 -4.23413 -0.73 a 10.6062 10.17 0 0 1 -3.25381 -1.86 l 1.04289 -1.57 a 1.16804 1.12 0 0 1 1.13675 -0.61 a 1.49133 1.43 0 0 1 0.855169 0.29 q 0.438013 0.29 1.04289 0.64 a 7.96767 7.64 0 0 0 1.4809 0.63 a 6.8935 6.61 0 0 0 2.17964 0.28 a 5.96532 5.72 0 0 0 1.89806 -0.26 a 3.88998 3.73 0 0 0 1.34533 -0.71 a 3.01395 2.89 0 0 0 0.792595 -1 a 3.23296 3.1 0 0 0 0.260722 -1.23 a 2.16921 2.08 0 0 0 -0.490158 -1.39 a 4.17156 4 0 0 0 -1.28275 -1 a 10.3559 9.93 0 0 0 -1.82506 -0.69 q -1.04289 -0.29 -2.08578 -0.63 a 21.2645 20.39 0 0 1 -2.08578 -0.77 a 7.1855 6.89 0 0 1 -1.82506 -1.11 a 5.39174 5.17 0 0 1 -1.28275 -1.63 a 5.51688 5.29 0 0 1 -0.490158 -2.34 a 5.90275 5.66 0 0 1 0.531873 -2.36 a 6.1009 5.85 0 0 1 1.5539 -2 a 7.62352 7.31 0 0 1 2.51336 -1.37 a 10.0952 9.68 0 0 1 3.41025 -0.51 a 10.8356 10.39 0 0 1 3.98384 0.67 a 9.14614 8.77 0 0 1 3.04524 1.84 Z" style="fill:#00796b" id="svg_22" class="" transform=""/><path d="M 354.949 257.69 a 2.71151 2.6 0 0 1 -0.239864 1.08 a 3.12867 3 0 0 1 -0.646591 0.9 a 2.94095 2.82 0 0 1 -0.949029 0.61 a 2.89923 2.78 0 0 1 -1.13675 0.22 a 2.7428 2.63 0 0 1 -1.11589 -0.22 a 2.99309 2.87 0 0 1 -0.928171 -0.61 a 2.95138 2.83 0 0 1 -0.636162 -0.9 a 2.82623 2.71 0 0 1 -0.229436 -1.08 a 2.87837 2.76 0 0 1 0.229436 -1.1 a 3.00352 2.88 0 0 1 1.56433 -1.51 a 2.7428 2.63 0 0 1 1.11589 -0.22 a 2.89923 2.78 0 0 1 1.13675 0.22 a 2.94095 2.82 0 0 1 0.949029 0.61 a 3.12867 3 0 0 1 0.646591 0.9 A 2.76366 2.65 0 0 1 354.949 257.69 Z m -0.803025 6.57 v 21.25 H 349.911 V 264.26 Z" style="fill:#00796b" id="svg_23" class="" transform=""/><path d="M 359.746 267.23 a 12.1809 11.68 0 0 1 8.79155 -3.37 a 8.5204 8.17 0 0 1 3.3581 0.6 a 6.92478 6.64 0 0 1 2.46122 1.66 a 7.38365 7.08 0 0 1 1.51219 2.55 a 10.8669 10.42 0 0 1 0.511015 3.28 v 13.55 h -1.89806 a 1.81463 1.74 0 0 1 -0.959458 -0.2 a 1.42876 1.37 0 0 1 -0.521444 -0.74 l -0.458871 -1.86 a 18.0628 17.32 0 0 1 -1.67905 1.33 a 10.8148 10.37 0 0 1 -1.7312 1 a 8.90627 8.54 0 0 1 -1.92934 0.62 a 10.9712 10.52 0 0 1 -2.26307 0.21 a 8.13453 7.8 0 0 1 -2.45079 -0.35 a 5.50645 5.28 0 0 1 -1.99192 -1.06 a 5.21444 5 0 0 1 -1.34533 -1.78 a 6.38248 6.12 0 0 1 -0.490158 -2.49 a 4.91201 4.71 0 0 1 0.709164 -2.42 a 6.37205 6.11 0 0 1 2.31521 -2.08 a 14.8716 14.26 0 0 1 4.17156 -1.51 a 31.3492 30.06 0 0 1 6.36162 -0.67 V 272 a 5.6316 5.4 0 0 0 -1.04289 -3.6 a 3.91083 3.75 0 0 0 -3.12867 -1.19 a 6.83092 6.55 0 0 0 -2.3465 0.33 a 8.97927 8.61 0 0 0 -1.63734 0.74 q -0.688307 0.41 -1.19932 0.74 a 1.85634 1.78 0 0 1 -1.04289 0.33 a 1.19932 1.15 0 0 1 -0.75088 -0.23 a 1.98149 1.9 0 0 1 -0.511015 -0.54 Z m 12.5147 8.85 a 32.4443 31.11 0 0 0 -4.40099 0.39 a 12.1705 11.67 0 0 0 -2.94095 0.8 a 4.00469 3.84 0 0 0 -1.63734 1.18 a 2.6698 2.56 0 0 0 -0.500587 1.52 a 3.4311 3.29 0 0 0 0.271151 1.37 a 2.6698 2.56 0 0 0 0.740451 0.94 a 2.97223 2.85 0 0 0 1.10546 0.53 a 5.12058 4.91 0 0 0 1.37661 0.17 a 7.73823 7.42 0 0 0 1.8042 -0.19 a 7.20636 6.91 0 0 0 1.53305 -0.53 a 7.77995 7.46 0 0 0 1.37661 -0.85 a 12.2539 11.75 0 0 0 1.28275 -1.15 Z" style="fill:#00796b" id="svg_24" class="" transform=""/></g></g></svg>