<svg id="Warstwa_1" data-name="Warstwa 1" xmlns="http://www.w3.org/2000/svg" width="500" height="500" viewBox="0 0 500 500"><title>Agata i Marcin</title><path d="M376,275A126,126,0,1,1,250,149,125.46,125.46,0,0,1,376,275Z" style="fill:#00796b"/><path d="M316.5,150.91V198.5H192V150.91c0-15.72,8.38-29.81,21.62-39.33A69.67,69.67,0,0,1,254.25,99C288.63,99,316.5,122.25,316.5,150.91Z" style="fill:#332a1a"/><path d="M351,350.3a126,126,0,0,1-202.62-.72l2.85-9.72c2.55-10.27,12.67-14.21,24.59-17.12l73.76-18.08,73.77,18.08c11.91,2.91,22,6.85,24.59,17.12Z" style="fill:#348da5"/><path d="M311.5,162v63h0A58.3,58.3,0,0,1,286,270.83V238a6,6,0,0,0-6-6H221a6,6,0,0,0-6,6v33.52c-15.47-10.3-25.78-27.24-26.45-46.52h0V162c0-32.58,27.53-59,61.5-59S311.5,129.42,311.5,162Z" style="fill:#efd2a8"/><path d="M280,274.51V325l-29.5,18L220,325V274.51a63.83,63.83,0,0,0,60,0Z" style="fill:#dbba97"/><path d="M250.5,226a11,11,0,0,1-10.37-8.05,1.5,1.5,0,1,1,2.86-.89,7.71,7.71,0,0,0,15,0,1.5,1.5,0,1,1,2.86.89A11,11,0,0,1,250.5,226Z" style="fill:#b59476"/><path d="M322.1,208c-1.95,6.27-6.15,10.69-10.6,11.8V187.32a8.35,8.35,0,0,1,4.6.46C322.14,190.2,324.83,199.26,322.1,208Z" style="fill:#dbba97"/><circle cx="280.5" cy="192.5" r="7.2"/><path d="M287,208H274a15,15,0,0,1-15-15v-1a15,15,0,0,1,15-15h13a15,15,0,0,1,15,15v1A15,15,0,0,1,287,208Zm-13-29a13,13,0,0,0-13,13v1a13,13,0,0,0,13,13h13a13,13,0,0,0,13-13v-1a13,13,0,0,0-13-13Z" style="fill:#494949"/><path d="M259.5,194.5a1,1,0,0,1-.65-.24c-1-.87-4.38-1.76-8.85-1.76s-7.83.88-8.85,1.76a1,1,0,1,1-1.3-1.52c1.58-1.36,5.57-2.24,10.15-2.24s8.57.88,10.15,2.24a1,1,0,0,1-.65,1.76Z" style="fill:#494949"/><circle cx="219.5" cy="192.5" r="7.2"/><path d="M226,208H213a15,15,0,0,1-15-15v-1a15,15,0,0,1,15-15h13a15,15,0,0,1,15,15v1A15,15,0,0,1,226,208Zm-13-29a13,13,0,0,0-13,13v1a13,13,0,0,0,13,13h13a13,13,0,0,0,13-13v-1a13,13,0,0,0-13-13Z" style="fill:#494949"/><path d="M316.5,150.91v9L316,161c-1.46.34-2.91.64-4.36.91a53,53,0,0,0-7.65-15c-7.52-10.07-14.76-9.89-14.4-9A43.09,43.09,0,0,0,297.28,153c6.59,7.14,10.79,8.89,12.85,9.19A145.75,145.75,0,0,1,285,164c-42.53,0-77-17-77-38,0-5.18,2.1-10.12,5.9-14.62A69.73,69.73,0,0,1,254.25,99C288.63,99,316.5,122.25,316.5,150.91Z" style="fill:#332a1a"/><path d="M193.75,164.69c5.8-24,24.4-40.08,41.54-35.93a23.22,23.22,0,0,1,4.61,1.65C234.6,119.3,225.65,112,215.5,112c-16.29,0-29.5,18.8-29.5,42v42.75Z" style="fill:#332a1a"/><path d="M286,238v32.83a60.94,60.94,0,0,1-6,3.68,63.83,63.83,0,0,1-60,0q-2.58-1.38-5-3V238a6,6,0,0,1,6-6h59A6,6,0,0,1,286,238Z" style="fill:#332a1a"/><path d="M271.5,259.5q-21.54,10.51-41,0a39.25,39.25,0,0,1,0-19c13,8.92,26.58,9.75,41,0A49.66,49.66,0,0,1,271.5,259.5Z" style="fill:#efd2a8"/><path d="M251,248.5c-9.56,0-18.11-3-21.28-7.42a1,1,0,1,1,1.63-1.16c2.81,3.94,10.71,6.58,19.66,6.58s16.84-2.65,19.66-6.58a1,1,0,1,1,1.63,1.16C269.14,245.52,260.59,248.5,251,248.5Z" style="fill:#915137"/><rect x="250" y="342.5" width="1" height="58" style="fill:#1e5968"/><path d="M204.79,176.1a1,1,0,0,1-.86-1.51c1.7-2.85,6.54-5,12.32-5.56s10.93.73,13.13,3.22a1,1,0,0,1-1.5,1.32c-1.73-2-6.44-3-11.44-2.55s-9.44,2.35-10.79,4.6A1,1,0,0,1,204.79,176.1Z"/><path d="M293.63,176.1a1,1,0,0,1-.86-.49c-1.34-2.25-5.78-4.14-10.79-4.6s-9.71.59-11.44,2.55a1,1,0,1,1-1.5-1.32c2.2-2.49,7.34-3.75,13.13-3.22s10.61,2.72,12.32,5.56a1,1,0,0,1-.86,1.51Z"/><path d="M296,315.5a34.64,34.64,0,0,0-15.56-15,137.12,137.12,0,0,1-29.94,42c8.69,7,16.2,13.48,21.77,21.55a1,1,0,0,0,1.79-.07A452.27,452.27,0,0,0,296,315.5Z" style="fill:#4aacc6"/><path d="M204.5,315.5a34.64,34.64,0,0,1,15.56-15,137.12,137.12,0,0,0,29.94,42c-8.69,7-16.2,13.48-21.77,21.55a1,1,0,0,1-1.79-.07A452.27,452.27,0,0,1,204.5,315.5Z" style="fill:#4aacc6"/><circle cx="216.2" cy="190.5" r="2.1" style="fill:#fff"/><circle cx="277.69" cy="190.5" r="2.1" style="fill:#fff"/><path d="M177.9,208c1.95,6.27,6.15,10.69,10.6,11.8V187.32a8.35,8.35,0,0,0-4.6.46C177.86,190.2,175.17,199.26,177.9,208Z" style="fill:#dbba97"/></svg>