<svg id="Warstwa_1" data-name="Warstwa 1" xmlns="http://www.w3.org/2000/svg" width="500" height="500" viewBox="0 0 500 500"><title>testimonials</title><path d="M250,107.5C140.37,107.5,51.5,171.3,51.5,250c0,40.83,23.93,77.65,62.27,103.63C102.35,365.27,87.9,375.11,71,383.5l99.48-2.91A265.8,265.8,0,0,0,250,392.5c109.63,0,198.5-63.8,198.5-142.5S359.63,107.5,250,107.5Z" style="fill:#00796b"/><path d="M249.92,167.6A82.4,82.4,0,1,0,332.4,250,82.36,82.36,0,0,0,249.92,167.6ZM250,315.92A65.92,65.92,0,1,1,315.92,250,65.9,65.9,0,0,1,250,315.92Zm28.84-74.16a12.36,12.36,0,1,0-12.36-12.36A12.34,12.34,0,0,0,278.84,241.76Zm-57.68,0A12.36,12.36,0,1,0,208.8,229.4,12.34,12.34,0,0,0,221.16,241.76ZM250,295.32a45.29,45.29,0,0,0,42.11-28.84H207.89A45.29,45.29,0,0,0,250,295.32Z" style="fill:#fff"/></svg>