<?xml version="1.0" standalone="no"?>
<!DOCTYPE svg PUBLIC "-//W3C//DTD SVG 20010904//EN"
 "http://www.w3.org/TR/2001/REC-SVG-20010904/DTD/svg10.dtd">
<svg version="1.0" xmlns="http://www.w3.org/2000/svg"
 width="700.000000pt" height="700.000000pt" viewBox="0 0 700.000000 700.000000"
 preserveAspectRatio="xMidYMid meet">
<metadata>
Created by potrace 1.11, written by Peter Selinger 2001-2013
</metadata>
<g transform="translate(0.000000,700.000000) scale(0.100000,-0.100000)"
fill="#000000" stroke="none">
<path d="M3487 6497 c-3 -9 -90 -151 -193 -315 -103 -163 -204 -326 -226 -362
-21 -36 -56 -92 -77 -125 -21 -33 -111 -177 -200 -320 -90 -143 -178 -282
-195 -310 -18 -27 -91 -143 -162 -257 -71 -114 -141 -227 -156 -250 -15 -24
-33 -53 -40 -66 -7 -12 -127 -204 -265 -426 -139 -221 -253 -405 -253 -408 0
-3 158 -4 351 -4 193 1 355 -1 359 -4 4 -3 -106 -187 -245 -410 -140 -223
-331 -529 -425 -680 -94 -151 -218 -349 -275 -440 -58 -91 -104 -168 -105
-172 0 -5 384 -8 853 -8 l853 0 -1 -726 c0 -474 3 -728 10 -732 6 -4 198 -7
428 -7 l417 0 1 30 c0 16 2 345 2 730 l2 700 853 3 c468 1 852 5 852 8 0 5
-110 181 -827 1329 -123 198 -225 363 -226 368 -1 6 140 10 341 10 188 0 342
1 342 2 0 7 -44 80 -120 200 -49 77 -137 218 -197 313 -59 96 -134 215 -166
265 -32 51 -61 99 -64 107 -4 8 -15 24 -25 34 -10 11 -18 24 -18 28 0 5 -8 21
-19 36 -10 15 -34 52 -53 82 -112 177 -189 301 -205 328 -36 63 -875 1402
-904 1443 -14 20 -16 21 -22 6z"/>
</g>
</svg>
